<svg width="27" height="27" viewBox="0 0 27 27" fill="none" xmlns="http://www.w3.org/2000/svg">
<circle cx="13.5" cy="13.4998" r="13.2" fill="white" fill-opacity="0.5"/>
<circle cx="13.5" cy="13.4998" r="13.2" fill="url(#paint0_linear_661_566)"/>
<path d="M19.6631 20.8335C20.9112 20.8335 21.8928 19.7668 21.7891 18.523L21.0779 9.9897C20.9858 8.884 20.0615 8.03353 18.952 8.03353H17.7149M17.7149 8.03353H13.4483M17.7149 8.03353V6.96686C17.7149 5.83527 17.2655 4.75003 16.4652 3.94987C15.6651 3.14972 14.5799 2.7002 13.4483 2.7002C12.3167 2.7002 11.2314 3.14972 10.4313 3.94987C9.63114 4.75003 9.18161 5.83527 9.18161 6.96686V8.03353M17.7149 8.03353V12.3002M9.18161 8.03353H7.94457C6.83504 8.03353 5.91075 8.884 5.81861 9.9897L5.10749 18.523C5.00384 19.7668 5.98537 20.8335 7.23346 20.8335H14.5149M9.18161 8.03353V12.3002" stroke="white" stroke-width="1.6" stroke-linecap="round" stroke-linejoin="round"/>
<defs>
<linearGradient id="paint0_linear_661_566" x1="-0.953115" y1="-4.2002" x2="29.9644" y2="-1.10478" gradientUnits="userSpaceOnUse">
<stop stop-color="#E72377"/>
<stop offset="1" stop-color="#EB5E1B"/>
</linearGradient>
</defs>
</svg>
