<svg width="21" height="25" viewBox="0 0 21 25" fill="none" xmlns="http://www.w3.org/2000/svg">
<circle cx="13.8001" cy="17.3" r="6.8" fill="white" fill-opacity="0.5"/>
<path d="M15.9633 19.0327C17.2114 19.0327 18.1929 17.966 18.0893 16.7222L17.3781 8.18892C17.2859 7.08322 16.3617 6.23275 15.2521 6.23275H14.0151M14.0151 6.23275H9.74845M14.0151 6.23275V5.16608C14.0151 4.03449 13.5656 2.94925 12.7654 2.14909C11.9653 1.34894 10.8801 0.899414 9.74845 0.899414C8.61683 0.899414 7.53162 1.34894 6.73146 2.14909C5.93131 2.94925 5.48179 4.03449 5.48179 5.16608V6.23275M14.0151 6.23275V10.4994M5.48179 6.23275H4.24474C3.13522 6.23275 2.21092 7.08322 2.11878 8.18892L1.40766 16.7222C1.30401 17.966 2.28554 19.0327 3.53363 19.0327H10.8151M5.48179 6.23275V10.4994" stroke="white" stroke-width="1.6" stroke-linecap="round" stroke-linejoin="round"/>
</svg>
