<svg width="17" height="17" viewBox="0 0 17 17" fill="none" xmlns="http://www.w3.org/2000/svg">
<path d="M12.4325 7.03554C12.2009 5.9109 11.6128 5.00358 10.6855 4.3202C9.62372 3.53963 8.44764 3.27085 7.15521 3.54915C5.32246 3.94182 3.89286 5.51059 3.66596 7.38439C3.5411 8.41373 3.77079 9.36775 4.32452 10.2437C4.60282 10.6831 4.96594 11.049 5.33668 11.4055C5.66072 11.7181 5.89519 12.0936 5.9495 12.5473C5.98858 12.8866 5.98095 13.2325 5.99334 13.5747C5.99334 13.6014 5.97905 13.6281 5.96666 13.6528C5.78081 13.994 5.7932 14.3238 6.01812 14.6412C6.06006 14.6993 6.06197 14.7441 6.03528 14.807C5.94474 15.0167 5.93044 15.2369 5.98381 15.4589C6.10867 15.9784 6.61093 16.3929 7.15705 16.4206C7.26189 16.4254 7.31812 16.4397 7.33241 16.5693C7.36672 16.8552 7.53732 16.9963 7.81563 16.9991H8.06247C8.15968 16.9991 8.25499 17.002 8.35316 16.9991C8.5676 16.9943 8.75344 16.8895 8.78774 16.6846C8.82682 16.453 8.95358 16.4282 9.14611 16.3967C9.87046 16.2748 10.4194 15.5304 10.1249 14.786C10.1106 14.747 10.1201 14.6812 10.144 14.645C10.3537 14.3181 10.3784 13.9864 10.1973 13.6395C10.1783 13.6004 10.1659 13.5537 10.163 13.5099C10.1602 13.3517 10.1678 13.1953 10.1659 13.0362C10.1535 12.3233 10.427 11.7381 10.956 11.2644C11.3191 10.9375 11.6413 10.5744 11.8929 10.1522C12.4637 9.18288 12.6593 8.141 12.4325 7.03554ZM9.46362 15.3636C9.37117 15.5828 9.19009 15.6876 8.96325 15.6905C8.36568 15.6981 7.76811 15.6981 7.16956 15.6905C6.94463 15.6876 6.78643 15.5637 6.69588 15.3607C6.63774 15.2292 6.6711 15.1806 6.81311 15.1806H8.08165V15.1777H9.33779C9.47027 15.1806 9.51699 15.2416 9.46362 15.3636ZM9.58752 14.2409C9.54368 14.3771 9.41406 14.4705 9.27014 14.4705C8.87271 14.4734 8.47433 14.4705 8.0769 14.4705C7.67661 14.4705 7.2744 14.4734 6.87412 14.4705C6.70828 14.4705 6.57199 14.3314 6.55959 14.1656C6.55197 14.0579 6.60153 13.9997 6.70637 13.9997C7.61846 13.9997 8.53341 14.0026 9.44634 13.9969C9.58549 13.995 9.62946 14.117 9.58752 14.2409ZM10.9009 10.2685C10.6664 10.5392 10.3957 10.7736 10.1546 11.0395C9.68568 11.5542 9.43503 12.1594 9.44932 12.8647C9.45218 12.9991 9.44932 13.1354 9.44932 13.2841H6.71399C6.71113 13.2307 6.70446 13.1764 6.70446 13.1258C6.69683 12.8037 6.71685 12.4816 6.62631 12.167C6.48525 11.6743 6.22602 11.2521 5.86004 10.8956C5.52837 10.5764 5.19384 10.2561 4.94224 9.86345C4.61534 9.34878 4.42281 8.79029 4.37611 8.18223C4.29796 7.13574 4.61248 6.21793 5.30536 5.43443C5.93724 4.72152 6.72544 4.27834 7.67469 4.17255C8.98517 4.02578 10.044 4.53568 10.9026 5.50019C11.3372 5.98816 11.6127 6.56383 11.727 7.2081C11.9301 8.35846 11.6662 9.38593 10.9009 10.2685Z" fill="black"/>
<path d="M12.4325 7.03554C12.2009 5.9109 11.6128 5.00358 10.6855 4.3202C9.62372 3.53963 8.44764 3.27085 7.15521 3.54915C5.32246 3.94182 3.89286 5.51059 3.66596 7.38439C3.5411 8.41373 3.77079 9.36775 4.32452 10.2437C4.60282 10.6831 4.96594 11.049 5.33668 11.4055C5.66072 11.7181 5.89519 12.0936 5.9495 12.5473C5.98858 12.8866 5.98095 13.2325 5.99334 13.5747C5.99334 13.6014 5.97905 13.6281 5.96666 13.6528C5.78081 13.994 5.7932 14.3238 6.01812 14.6412C6.06006 14.6993 6.06197 14.7441 6.03528 14.807C5.94474 15.0167 5.93044 15.2369 5.98381 15.4589C6.10867 15.9784 6.61093 16.3929 7.15705 16.4206C7.26189 16.4254 7.31812 16.4397 7.33241 16.5693C7.36672 16.8552 7.53732 16.9963 7.81563 16.9991H8.06247C8.15968 16.9991 8.25499 17.002 8.35316 16.9991C8.5676 16.9943 8.75344 16.8895 8.78774 16.6846C8.82682 16.453 8.95358 16.4282 9.14611 16.3967C9.87046 16.2748 10.4194 15.5304 10.1249 14.786C10.1106 14.747 10.1201 14.6812 10.144 14.645C10.3537 14.3181 10.3784 13.9864 10.1973 13.6395C10.1783 13.6004 10.1659 13.5537 10.163 13.5099C10.1602 13.3517 10.1678 13.1953 10.1659 13.0362C10.1535 12.3233 10.427 11.7381 10.956 11.2644C11.3191 10.9375 11.6413 10.5744 11.8929 10.1522C12.4637 9.18288 12.6593 8.141 12.4325 7.03554ZM9.46362 15.3636C9.37117 15.5828 9.19009 15.6876 8.96325 15.6905C8.36568 15.6981 7.76811 15.6981 7.16956 15.6905C6.94463 15.6876 6.78643 15.5637 6.69588 15.3607C6.63774 15.2292 6.6711 15.1806 6.81311 15.1806H8.08165V15.1777H9.33779C9.47027 15.1806 9.51699 15.2416 9.46362 15.3636ZM9.58752 14.2409C9.54368 14.3771 9.41406 14.4705 9.27014 14.4705C8.87271 14.4734 8.47433 14.4705 8.0769 14.4705C7.67661 14.4705 7.2744 14.4734 6.87412 14.4705C6.70828 14.4705 6.57199 14.3314 6.55959 14.1656C6.55197 14.0579 6.60153 13.9997 6.70637 13.9997C7.61846 13.9997 8.53341 14.0026 9.44634 13.9969C9.58549 13.995 9.62946 14.117 9.58752 14.2409ZM10.9009 10.2685C10.6664 10.5392 10.3957 10.7736 10.1546 11.0395C9.68568 11.5542 9.43503 12.1594 9.44932 12.8647C9.45218 12.9991 9.44932 13.1354 9.44932 13.2841H6.71399C6.71113 13.2307 6.70446 13.1764 6.70446 13.1258C6.69683 12.8037 6.71685 12.4816 6.62631 12.167C6.48525 11.6743 6.22602 11.2521 5.86004 10.8956C5.52837 10.5764 5.19384 10.2561 4.94224 9.86345C4.61534 9.34878 4.42281 8.79029 4.37611 8.18223C4.29796 7.13574 4.61248 6.21793 5.30536 5.43443C5.93724 4.72152 6.72544 4.27834 7.67469 4.17255C8.98517 4.02578 10.044 4.53568 10.9026 5.50019C11.3372 5.98816 11.6127 6.56383 11.727 7.2081C11.9301 8.35846 11.6662 9.38593 10.9009 10.2685Z" fill="url(#paint0_linear_265_26815)"/>
<path d="M15.8089 7.76663C15.0941 7.76663 14.3764 7.76949 13.6616 7.77425C13.6054 7.77425 13.5473 7.78664 13.4958 7.80856C13.3566 7.86956 13.288 8.02301 13.3204 8.17455C13.3519 8.32132 13.4786 8.43283 13.6349 8.43283C14.0038 8.4376 14.3717 8.43569 14.7405 8.43569V8.43283C15.0989 8.43283 15.4553 8.43569 15.8137 8.43283C16.0262 8.42997 16.1672 8.29845 16.1653 8.11069C16.1625 7.90387 16.0214 7.76473 15.8089 7.76663Z" fill="black"/>
<path d="M15.8089 7.76663C15.0941 7.76663 14.3764 7.76949 13.6616 7.77425C13.6054 7.77425 13.5473 7.78664 13.4958 7.80856C13.3566 7.86956 13.288 8.02301 13.3204 8.17455C13.3519 8.32132 13.4786 8.43283 13.6349 8.43283C14.0038 8.4376 14.3717 8.43569 14.7405 8.43569V8.43283C15.0989 8.43283 15.4553 8.43569 15.8137 8.43283C16.0262 8.42997 16.1672 8.29845 16.1653 8.11069C16.1625 7.90387 16.0214 7.76473 15.8089 7.76663Z" fill="url(#paint1_linear_265_26815)"/>
<path d="M2.84948 8.12116C2.86187 7.9477 2.75894 7.81903 2.57595 7.77997C2.52448 7.77044 2.46825 7.76758 2.41774 7.76758H0.365759C0.102717 7.76758 -0.053606 7.96772 0.0169306 8.20885C0.0588671 8.34514 0.156079 8.42806 0.30952 8.43092C0.678355 8.43569 1.04624 8.43378 1.417 8.43378V8.43092C1.78584 8.43092 2.15372 8.43378 2.52448 8.42806C2.69508 8.42616 2.83709 8.28414 2.84948 8.12116Z" fill="black"/>
<path d="M2.84948 8.12116C2.86187 7.9477 2.75894 7.81903 2.57595 7.77997C2.52448 7.77044 2.46825 7.76758 2.41774 7.76758H0.365759C0.102717 7.76758 -0.053606 7.96772 0.0169306 8.20885C0.0588671 8.34514 0.156079 8.42806 0.30952 8.43092C0.678355 8.43569 1.04624 8.43378 1.417 8.43378V8.43092C1.78584 8.43092 2.15372 8.43378 2.52448 8.42806C2.69508 8.42616 2.83709 8.28414 2.84948 8.12116Z" fill="url(#paint2_linear_265_26815)"/>
<path d="M4.46212 3.56989C4.50405 3.63375 4.57935 3.68903 4.64987 3.71666C4.77663 3.76527 4.94056 3.70237 5.02061 3.59181C5.10639 3.47268 5.10067 3.35259 5.02347 3.23344C4.89385 3.0333 4.76518 2.83125 4.63558 2.63108C4.39922 2.26986 4.1619 1.90866 3.92553 1.54553C3.85691 1.44069 3.7616 1.37684 3.63294 1.37207C3.35941 1.38637 3.20596 1.66466 3.3842 1.93058C3.74447 2.4748 4.09804 3.02568 4.46212 3.56989Z" fill="black"/>
<path d="M4.46212 3.56989C4.50405 3.63375 4.57935 3.68903 4.64987 3.71666C4.77663 3.76527 4.94056 3.70237 5.02061 3.59181C5.10639 3.47268 5.10067 3.35259 5.02347 3.23344C4.89385 3.0333 4.76518 2.83125 4.63558 2.63108C4.39922 2.26986 4.1619 1.90866 3.92553 1.54553C3.85691 1.44069 3.7616 1.37684 3.63294 1.37207C3.35941 1.38637 3.20596 1.66466 3.3842 1.93058C3.74447 2.4748 4.09804 3.02568 4.46212 3.56989Z" fill="url(#paint3_linear_265_26815)"/>
<path d="M11.4837 3.72146C11.5914 3.69954 11.6571 3.62901 11.7134 3.54323C11.9478 3.18487 12.1842 2.82557 12.4186 2.4672C12.5502 2.26514 12.6893 2.06501 12.8094 1.85247C12.9314 1.63326 12.7675 1.37211 12.5216 1.37403C12.3748 1.37403 12.2852 1.43789 12.1747 1.60849C11.984 1.90586 11.7896 2.20131 11.5961 2.49866C11.4379 2.7455 11.2769 2.99139 11.1225 3.23823C11.0472 3.36023 11.0567 3.48698 11.1396 3.60136C11.2254 3.71669 11.3445 3.74815 11.4837 3.72146Z" fill="black"/>
<path d="M11.4837 3.72146C11.5914 3.69954 11.6571 3.62901 11.7134 3.54323C11.9478 3.18487 12.1842 2.82557 12.4186 2.4672C12.5502 2.26514 12.6893 2.06501 12.8094 1.85247C12.9314 1.63326 12.7675 1.37211 12.5216 1.37403C12.3748 1.37403 12.2852 1.43789 12.1747 1.60849C11.984 1.90586 11.7896 2.20131 11.5961 2.49866C11.4379 2.7455 11.2769 2.99139 11.1225 3.23823C11.0472 3.36023 11.0567 3.48698 11.1396 3.60136C11.2254 3.71669 11.3445 3.74815 11.4837 3.72146Z" fill="url(#paint4_linear_265_26815)"/>
<path d="M8.24482 2.60385C8.3792 2.5238 8.40875 2.39608 8.40875 2.25502C8.40875 1.61836 8.41161 0.9817 8.40589 0.345062C8.40589 0.274534 8.3792 0.19638 8.34013 0.135383C8.26198 0.0133888 8.1152 -0.0256882 7.98176 0.0162485C7.83499 0.0600908 7.75016 0.16493 7.75016 0.324088C7.7454 0.655766 7.75016 0.990298 7.75016 1.32195C7.75016 1.65839 7.7454 1.99577 7.75302 2.33221C7.75398 2.60384 8.01228 2.7411 8.24482 2.60385Z" fill="black"/>
<path d="M8.24482 2.60385C8.3792 2.5238 8.40875 2.39608 8.40875 2.25502C8.40875 1.61836 8.41161 0.9817 8.40589 0.345062C8.40589 0.274534 8.3792 0.19638 8.34013 0.135383C8.26198 0.0133888 8.1152 -0.0256882 7.98176 0.0162485C7.83499 0.0600908 7.75016 0.16493 7.75016 0.324088C7.7454 0.655766 7.75016 0.990298 7.75016 1.32195C7.75016 1.65839 7.7454 1.99577 7.75302 2.33221C7.75398 2.60384 8.01228 2.7411 8.24482 2.60385Z" fill="url(#paint5_linear_265_26815)"/>
<path d="M12.8102 11.0974C12.754 11.0535 12.6758 11.0364 12.6081 11.0068C12.4671 11.0211 12.3346 11.1021 12.286 11.2241C12.2345 11.3509 12.2717 11.4634 12.3642 11.5587C12.4156 11.612 12.4766 11.6587 12.5348 11.7054C12.9646 12.0419 13.3935 12.384 13.8281 12.7128C13.9015 12.7691 14.0082 12.8082 14.0988 12.8082C14.2379 12.811 14.338 12.7176 14.3818 12.5832C14.4285 12.4365 14.3866 12.3125 14.2675 12.2201C13.7861 11.8465 13.301 11.47 12.8102 11.0974Z" fill="black"/>
<path d="M12.8102 11.0974C12.754 11.0535 12.6758 11.0364 12.6081 11.0068C12.4671 11.0211 12.3346 11.1021 12.286 11.2241C12.2345 11.3509 12.2717 11.4634 12.3642 11.5587C12.4156 11.612 12.4766 11.6587 12.5348 11.7054C12.9646 12.0419 13.3935 12.384 13.8281 12.7128C13.9015 12.7691 14.0082 12.8082 14.0988 12.8082C14.2379 12.811 14.338 12.7176 14.3818 12.5832C14.4285 12.4365 14.3866 12.3125 14.2675 12.2201C13.7861 11.8465 13.301 11.47 12.8102 11.0974Z" fill="url(#paint6_linear_265_26815)"/>
<path d="M3.68421 11.0706C3.56698 11.0019 3.44784 11.0096 3.34014 11.0849C3.23244 11.1602 3.13046 11.2459 3.02561 11.3289C2.65009 11.6214 2.2765 11.914 1.90288 12.2095C1.72942 12.3458 1.69511 12.544 1.81043 12.6975C1.9248 12.8509 2.12018 12.8681 2.30602 12.7394C2.36225 12.7003 2.41562 12.6594 2.46995 12.6174C2.88263 12.2876 3.29721 11.956 3.70894 11.6243C3.79472 11.5557 3.84809 11.4709 3.84332 11.4023C3.84237 11.2316 3.7919 11.1316 3.68421 11.0706Z" fill="black"/>
<path d="M3.68421 11.0706C3.56698 11.0019 3.44784 11.0096 3.34014 11.0849C3.23244 11.1602 3.13046 11.2459 3.02561 11.3289C2.65009 11.6214 2.2765 11.914 1.90288 12.2095C1.72942 12.3458 1.69511 12.544 1.81043 12.6975C1.9248 12.8509 2.12018 12.8681 2.30602 12.7394C2.36225 12.7003 2.41562 12.6594 2.46995 12.6174C2.88263 12.2876 3.29721 11.956 3.70894 11.6243C3.79472 11.5557 3.84809 11.4709 3.84332 11.4023C3.84237 11.2316 3.7919 11.1316 3.68421 11.0706Z" fill="url(#paint7_linear_265_26815)"/>
<path d="M12.3794 4.69136C12.3231 4.82574 12.3622 4.97729 12.4623 5.06495C12.5652 5.1555 12.7139 5.16979 12.853 5.08688C12.9874 5.00396 13.1142 4.91151 13.2381 4.81619C13.585 4.55315 13.931 4.28913 14.2779 4.02323C14.3637 3.95747 14.4142 3.86979 14.4123 3.75446C14.4094 3.6277 14.3541 3.53239 14.2417 3.46662C14.0901 3.38085 13.9615 3.43231 13.8366 3.52476C13.3906 3.86405 12.9407 4.20049 12.4975 4.54265C12.4461 4.57887 12.4013 4.63513 12.3794 4.69136Z" fill="black"/>
<path d="M12.3794 4.69136C12.3231 4.82574 12.3622 4.97729 12.4623 5.06495C12.5652 5.1555 12.7139 5.16979 12.853 5.08688C12.9874 5.00396 13.1142 4.91151 13.2381 4.81619C13.585 4.55315 13.931 4.28913 14.2779 4.02323C14.3637 3.95747 14.4142 3.86979 14.4123 3.75446C14.4094 3.6277 14.3541 3.53239 14.2417 3.46662C14.0901 3.38085 13.9615 3.43231 13.8366 3.52476C13.3906 3.86405 12.9407 4.20049 12.4975 4.54265C12.4461 4.57887 12.4013 4.63513 12.3794 4.69136Z" fill="url(#paint8_linear_265_26815)"/>
<path d="M1.8942 4.0455C2.22873 4.2971 2.56231 4.55063 2.89684 4.80226C3.01883 4.89471 3.14368 4.98525 3.27043 5.07294C3.38766 5.15586 3.51442 5.15586 3.63356 5.08723C3.74125 5.02624 3.79177 4.92616 3.79463 4.80416C3.79939 4.66978 3.71933 4.58686 3.62117 4.51347C3.30857 4.27901 2.9988 4.04455 2.68716 3.81105C2.52323 3.68906 2.36502 3.55945 2.19157 3.45747C2.01335 3.35263 1.79605 3.46223 1.74554 3.66238C1.70361 3.82631 1.76458 3.9483 1.8942 4.0455Z" fill="black"/>
<path d="M1.8942 4.0455C2.22873 4.2971 2.56231 4.55063 2.89684 4.80226C3.01883 4.89471 3.14368 4.98525 3.27043 5.07294C3.38766 5.15586 3.51442 5.15586 3.63356 5.08723C3.74125 5.02624 3.79177 4.92616 3.79463 4.80416C3.79939 4.66978 3.71933 4.58686 3.62117 4.51347C3.30857 4.27901 2.9988 4.04455 2.68716 3.81105C2.52323 3.68906 2.36502 3.55945 2.19157 3.45747C2.01335 3.35263 1.79605 3.46223 1.74554 3.66238C1.70361 3.82631 1.76458 3.9483 1.8942 4.0455Z" fill="url(#paint9_linear_265_26815)"/>
<path d="M14.5215 9.83169C14.2137 9.72876 13.902 9.63631 13.5894 9.55149C13.4455 9.51242 13.3092 9.59819 13.2625 9.72972C13.2063 9.89365 13.2578 10.0738 13.4017 10.1252C13.7143 10.2349 14.0307 10.3397 14.3509 10.4255C14.5387 10.4741 14.7093 10.3178 14.7122 10.1014C14.7112 9.98802 14.6531 9.87554 14.5215 9.83169Z" fill="black"/>
<path d="M14.5215 9.83169C14.2137 9.72876 13.902 9.63631 13.5894 9.55149C13.4455 9.51242 13.3092 9.59819 13.2625 9.72972C13.2063 9.89365 13.2578 10.0738 13.4017 10.1252C13.7143 10.2349 14.0307 10.3397 14.3509 10.4255C14.5387 10.4741 14.7093 10.3178 14.7122 10.1014C14.7112 9.98802 14.6531 9.87554 14.5215 9.83169Z" fill="url(#paint10_linear_265_26815)"/>
<path d="M1.68841 6.42789C1.92763 6.50128 2.16684 6.5718 2.40798 6.64043C2.48327 6.66235 2.56142 6.68236 2.63957 6.67664C2.78063 6.66902 2.88356 6.55941 2.90071 6.42311C2.91977 6.25251 2.84925 6.12574 2.68818 6.07143C2.51948 6.0152 2.34699 5.96659 2.17542 5.91798C2.05628 5.88367 1.93619 5.84269 1.81419 5.81505C1.59975 5.76645 1.43867 5.8932 1.43582 6.10289C1.4301 6.26205 1.51494 6.37453 1.68841 6.42789Z" fill="black"/>
<path d="M1.68841 6.42789C1.92763 6.50128 2.16684 6.5718 2.40798 6.64043C2.48327 6.66235 2.56142 6.68236 2.63957 6.67664C2.78063 6.66902 2.88356 6.55941 2.90071 6.42311C2.91977 6.25251 2.84925 6.12574 2.68818 6.07143C2.51948 6.0152 2.34699 5.96659 2.17542 5.91798C2.05628 5.88367 1.93619 5.84269 1.81419 5.81505C1.59975 5.76645 1.43867 5.8932 1.43582 6.10289C1.4301 6.26205 1.51494 6.37453 1.68841 6.42789Z" fill="url(#paint11_linear_265_26815)"/>
<path d="M2.73803 10.1314C2.86288 10.0894 2.90386 9.98268 2.91339 9.88737C2.91816 9.64338 2.75995 9.4947 2.55695 9.55094C2.24436 9.63671 1.93459 9.73679 1.62961 9.84163C1.46568 9.89786 1.39991 10.0637 1.45424 10.2295C1.50285 10.3811 1.64486 10.4687 1.81068 10.422C2.12042 10.3344 2.43019 10.2314 2.73803 10.1314Z" fill="black"/>
<path d="M2.73803 10.1314C2.86288 10.0894 2.90386 9.98268 2.91339 9.88737C2.91816 9.64338 2.75995 9.4947 2.55695 9.55094C2.24436 9.63671 1.93459 9.73679 1.62961 9.84163C1.46568 9.89786 1.39991 10.0637 1.45424 10.2295C1.50285 10.3811 1.64486 10.4687 1.81068 10.422C2.12042 10.3344 2.43019 10.2314 2.73803 10.1314Z" fill="url(#paint12_linear_265_26815)"/>
<path d="M14.0802 5.88568C13.861 5.95144 13.6408 6.01244 13.4264 6.08773C13.2749 6.14111 13.2091 6.31743 13.2625 6.48041C13.3111 6.62909 13.4378 6.70248 13.5989 6.66816C13.6818 6.65101 13.7647 6.62623 13.8476 6.59954C14.0792 6.52901 14.3137 6.46516 14.5434 6.3851C14.6825 6.33649 14.7454 6.17542 14.7092 6.02866C14.6749 5.88951 14.5606 5.79896 14.3776 5.80182C14.3051 5.8247 14.1927 5.85137 14.0802 5.88568Z" fill="black"/>
<path d="M14.0802 5.88568C13.861 5.95144 13.6408 6.01244 13.4264 6.08773C13.2749 6.14111 13.2091 6.31743 13.2625 6.48041C13.3111 6.62909 13.4378 6.70248 13.5989 6.66816C13.6818 6.65101 13.7647 6.62623 13.8476 6.59954C14.0792 6.52901 14.3137 6.46516 14.5434 6.3851C14.6825 6.33649 14.7454 6.17542 14.7092 6.02866C14.6749 5.88951 14.5606 5.79896 14.3776 5.80182C14.3051 5.8247 14.1927 5.85137 14.0802 5.88568Z" fill="url(#paint13_linear_265_26815)"/>
<path d="M5.97417 2.64538C6.01611 2.75975 6.11046 2.82837 6.23531 2.82074C6.43546 2.81788 6.60415 2.65491 6.55935 2.48431C6.49359 2.22793 6.41544 1.97442 6.32776 1.72755C6.27438 1.57887 6.11522 1.5255 5.94938 1.57411C5.8007 1.61795 5.69778 1.74757 5.73685 1.88863C5.80356 2.14311 5.88363 2.39661 5.97417 2.64538Z" fill="black"/>
<path d="M5.97417 2.64538C6.01611 2.75975 6.11046 2.82837 6.23531 2.82074C6.43546 2.81788 6.60415 2.65491 6.55935 2.48431C6.49359 2.22793 6.41544 1.97442 6.32776 1.72755C6.27438 1.57887 6.11522 1.5255 5.94938 1.57411C5.8007 1.61795 5.69778 1.74757 5.73685 1.88863C5.80356 2.14311 5.88363 2.39661 5.97417 2.64538Z" fill="url(#paint14_linear_265_26815)"/>
<path d="M9.89508 2.82126C10.039 2.8184 10.1486 2.74787 10.1953 2.60682C10.2706 2.38189 10.3392 2.15793 10.405 1.93109C10.4441 1.7948 10.3859 1.66995 10.2687 1.60132C10.0905 1.49838 9.8808 1.56701 9.81027 1.76239C9.73211 1.97683 9.66349 2.19698 9.6025 2.4162C9.5415 2.64304 9.67778 2.82412 9.89508 2.82126Z" fill="black"/>
<path d="M9.89508 2.82126C10.039 2.8184 10.1486 2.74787 10.1953 2.60682C10.2706 2.38189 10.3392 2.15793 10.405 1.93109C10.4441 1.7948 10.3859 1.66995 10.2687 1.60132C10.0905 1.49838 9.8808 1.56701 9.81027 1.76239C9.73211 1.97683 9.66349 2.19698 9.6025 2.4162C9.5415 2.64304 9.67778 2.82412 9.89508 2.82126Z" fill="url(#paint15_linear_265_26815)"/>
<defs>
<linearGradient id="paint0_linear_265_26815" x1="3.21073" y1="1.13136" x2="13.6833" y2="1.819" gradientUnits="userSpaceOnUse">
<stop stop-color="#E72377"/>
<stop offset="1" stop-color="#EB5E1B"/>
</linearGradient>
<linearGradient id="paint1_linear_265_26815" x1="13.1771" y1="7.65249" x2="16.0319" y2="8.8705" gradientUnits="userSpaceOnUse">
<stop stop-color="#E72377"/>
<stop offset="1" stop-color="#EB5E1B"/>
</linearGradient>
<linearGradient id="paint2_linear_265_26815" x1="-0.135308" y1="7.65396" x2="2.71411" y2="8.87389" gradientUnits="userSpaceOnUse">
<stop stop-color="#E72377"/>
<stop offset="1" stop-color="#EB5E1B"/>
</linearGradient>
<linearGradient id="paint3_linear_265_26815" x1="3.22334" y1="0.96959" x2="5.31171" y2="1.12681" gradientUnits="userSpaceOnUse">
<stop stop-color="#E72377"/>
<stop offset="1" stop-color="#EB5E1B"/>
</linearGradient>
<linearGradient id="paint4_linear_265_26815" x1="10.9868" y1="0.972377" x2="13.0796" y2="1.13061" gradientUnits="userSpaceOnUse">
<stop stop-color="#E72377"/>
<stop offset="1" stop-color="#EB5E1B"/>
</linearGradient>
<linearGradient id="paint5_linear_265_26815" x1="7.71665" y1="-0.453023" x2="8.49853" y2="-0.433542" gradientUnits="userSpaceOnUse">
<stop stop-color="#E72377"/>
<stop offset="1" stop-color="#EB5E1B"/>
</linearGradient>
<linearGradient id="paint6_linear_265_26815" x1="12.1612" y1="10.6998" x2="14.6547" y2="10.9961" gradientUnits="userSpaceOnUse">
<stop stop-color="#E72377"/>
<stop offset="1" stop-color="#EB5E1B"/>
</linearGradient>
<linearGradient id="paint7_linear_265_26815" x1="1.64346" y1="10.7163" x2="4.09461" y2="11.0023" gradientUnits="userSpaceOnUse">
<stop stop-color="#E72377"/>
<stop offset="1" stop-color="#EB5E1B"/>
</linearGradient>
<linearGradient id="paint8_linear_265_26815" x1="12.2558" y1="3.12987" x2="14.6565" y2="3.41777" gradientUnits="userSpaceOnUse">
<stop stop-color="#E72377"/>
<stop offset="1" stop-color="#EB5E1B"/>
</linearGradient>
<linearGradient id="paint9_linear_265_26815" x1="1.63452" y1="3.1238" x2="4.0394" y2="3.4125" gradientUnits="userSpaceOnUse">
<stop stop-color="#E72377"/>
<stop offset="1" stop-color="#EB5E1B"/>
</linearGradient>
<linearGradient id="paint10_linear_265_26815" x1="13.1704" y1="9.38988" x2="14.8652" y2="9.66977" gradientUnits="userSpaceOnUse">
<stop stop-color="#E72377"/>
<stop offset="1" stop-color="#EB5E1B"/>
</linearGradient>
<linearGradient id="paint11_linear_265_26815" x1="1.36585" y1="5.65589" x2="3.05464" y2="5.94026" gradientUnits="userSpaceOnUse">
<stop stop-color="#E72377"/>
<stop offset="1" stop-color="#EB5E1B"/>
</linearGradient>
<linearGradient id="paint12_linear_265_26815" x1="1.36539" y1="9.38641" x2="3.06713" y2="9.66759" gradientUnits="userSpaceOnUse">
<stop stop-color="#E72377"/>
<stop offset="1" stop-color="#EB5E1B"/>
</linearGradient>
<linearGradient id="paint13_linear_265_26815" x1="13.1741" y1="5.65265" x2="14.8707" y2="5.9391" gradientUnits="userSpaceOnUse">
<stop stop-color="#E72377"/>
<stop offset="1" stop-color="#EB5E1B"/>
</linearGradient>
<linearGradient id="paint14_linear_265_26815" x1="5.68873" y1="1.34107" x2="6.67575" y2="1.40656" gradientUnits="userSpaceOnUse">
<stop stop-color="#E72377"/>
<stop offset="1" stop-color="#EB5E1B"/>
</linearGradient>
<linearGradient id="paint15_linear_265_26815" x1="9.54853" y1="1.33764" x2="10.5252" y2="1.40161" gradientUnits="userSpaceOnUse">
<stop stop-color="#E72377"/>
<stop offset="1" stop-color="#EB5E1B"/>
</linearGradient>
</defs>
</svg>
