<svg width="20" height="20" viewBox="0 0 20 20" fill="none" xmlns="http://www.w3.org/2000/svg">
<path d="M10 0C4.477 0 0 4.477 0 9.99999C0 15.523 4.477 20 10 20C15.523 20 20 15.523 20 9.99999C20 4.477 15.523 0 10 0Z" fill="url(#paint0_linear_634_288)"/>
<path d="M10 0C4.477 0 0 4.477 0 9.99999C0 15.523 4.477 20 10 20C15.523 20 20 15.523 20 9.99999C20 4.477 15.523 0 10 0Z" fill="white"/>
<path d="M11.3538 12.6509H13.9418L14.3483 10.0219H11.3538V8.58494C11.3538 7.49294 11.7108 6.52444 12.7323 6.52444H14.3738V4.23045C14.0853 4.19145 13.4753 4.10645 12.3228 4.10645C9.91577 4.10645 8.50477 5.37744 8.50477 8.27344V10.0224H6.03027V12.6514H8.50427V19.8774C8.99427 19.9504 9.49077 20.0004 10.0003 20.0004C10.4608 20.0004 10.9103 19.9584 11.3538 19.8984V12.6509Z" fill="#111111"/>
<defs>
<linearGradient id="paint0_linear_634_288" x1="2.9965" y1="2.9965" x2="18.3075" y2="18.3075" gradientUnits="userSpaceOnUse">
<stop stop-color="#2AA4F4"/>
<stop offset="1" stop-color="#007AD9"/>
</linearGradient>
</defs>
</svg>
