<svg width="21" height="20" viewBox="0 0 21 20" fill="none" xmlns="http://www.w3.org/2000/svg">
<path d="M10.5002 0.18457C5.03858 0.18457 0.611328 4.61182 0.611328 10.0735C0.611328 15.5351 5.03858 19.9623 10.5002 19.9623C15.9619 19.9623 20.3891 15.5351 20.3891 10.0735C20.3891 4.61182 15.9619 0.18457 10.5002 0.18457Z" fill="url(#paint0_linear_318_242)"/>
<path d="M11.8391 12.6942H14.3983L14.8003 10.0944H11.8391V8.67336C11.8391 7.5935 12.1921 6.63576 13.2022 6.63576H14.8255V4.36725C14.5402 4.32868 13.937 4.24463 12.7973 4.24463C10.417 4.24463 9.02171 5.50151 9.02171 8.36532V10.0949H6.57471V12.6947H9.02122V19.8404C9.50577 19.9126 9.99676 19.962 10.5006 19.962C10.956 19.962 11.4005 19.9205 11.8391 19.8611V12.6942Z" fill="white"/>
<defs>
<linearGradient id="paint0_linear_318_242" x1="3.57453" y1="3.14777" x2="18.7154" y2="18.2887" gradientUnits="userSpaceOnUse">
<stop stop-color="#2AA4F4"/>
<stop offset="1" stop-color="#007AD9"/>
</linearGradient>
</defs>
</svg>
