<svg width="181" height="184" viewBox="0 0 181 184" fill="none" xmlns="http://www.w3.org/2000/svg">
<path d="M37.8493 124.558C38.3503 124.271 44.0052 121.877 72.1371 134.992C72.0551 135.104 72.0203 135.156 72.0203 135.156C72.0203 135.156 42.7744 145.005 37.0443 132.872C35.3331 129.26 35.8235 126.772 37.8004 124.586L37.8493 124.558Z" fill="black"/>
<path d="M132.403 129.52C126.291 134.659 116.706 138.388 107.458 133.429C108.919 132.495 110.429 131.533 111.969 130.538C121.256 124.57 129.437 128.563 132.403 129.52Z" fill="black"/>
<path d="M143.351 66.3255C149.595 118.323 134.755 127.76 133.103 129.193C132.625 129.608 132.431 129.578 131.708 129.392L131.696 129.399C128.635 128.587 121.256 124.57 111.968 130.537C110.428 131.532 108.918 132.494 107.457 133.428C97.9825 139.437 90.3311 143.672 84.8187 141.214C80.1431 138.828 75.9272 136.764 72.1371 134.991C44.0052 121.876 38.3504 124.27 37.8494 124.557C38.4307 124.24 43.7637 121.284 50.9445 116.086C50.9689 116.072 50.9934 116.058 50.9986 116.039C60.5967 109.083 73.4506 98.121 82.6899 84.0203C88.9796 74.4317 95.1329 50.1237 107.005 45.3542C131.405 36.2519 142.337 55.749 143.351 66.3255Z" fill="black"/>
<path d="M143.351 66.3255C149.595 118.323 134.755 127.76 133.103 129.193C132.625 129.608 132.431 129.578 131.708 129.392L131.696 129.399C128.635 128.587 121.256 124.57 111.968 130.537C110.428 131.532 108.918 132.494 107.457 133.428C97.9825 139.437 90.3311 143.672 84.8187 141.214C80.1431 138.828 75.9272 136.764 72.1371 134.991C44.0052 121.876 38.3504 124.27 37.8494 124.557C38.4307 124.24 43.7637 121.284 50.9445 116.086C50.9689 116.072 50.9934 116.058 50.9986 116.039C60.5967 109.083 73.4506 98.121 82.6899 84.0203C88.9796 74.4317 95.1329 50.1237 107.005 45.3542C131.405 36.2519 142.337 55.749 143.351 66.3255Z" fill="url(#paint0_linear_667_1444)"/>
<path d="M116.371 65.4144C117.129 63.4145 117.055 61.5327 116.207 61.2114C115.358 60.8901 114.056 62.2509 113.299 64.2508C112.541 66.2508 112.615 68.1326 113.464 68.4539C114.312 68.7752 115.614 67.4144 116.371 65.4144Z" fill="black"/>
<path d="M131.907 67.966C132.444 65.8959 132.167 64.0331 131.289 63.8054C130.411 63.5777 129.264 65.0712 128.727 67.1414C128.19 69.2115 128.467 71.0743 129.345 71.302C130.223 71.5297 131.37 70.0361 131.907 67.966Z" fill="black"/>
<path d="M122.45 75.567C122.323 75.5668 122.2 75.5232 122.101 75.4433C122.002 75.3634 121.933 75.252 121.906 75.1276C121.806 74.6774 121.364 73.3451 120.662 73.1471C119.961 72.9491 118.585 73.7178 118.028 74.1211C117.908 74.2079 117.759 74.2435 117.613 74.2202C117.467 74.1968 117.336 74.1163 117.249 73.9965C117.162 73.8767 117.127 73.7273 117.15 73.5812C117.173 73.4351 117.254 73.3043 117.374 73.2175C117.593 73.0586 119.558 71.6763 120.965 72.0733C122.433 72.4874 122.943 74.6456 122.996 74.8903C123.014 74.9718 123.013 75.0563 122.994 75.1374C122.974 75.2186 122.937 75.2944 122.885 75.3593C122.833 75.4242 122.766 75.4766 122.691 75.5125C122.616 75.5485 122.534 75.5671 122.45 75.567H122.45Z" fill="black"/>
<defs>
<linearGradient id="paint0_linear_667_1444" x1="32.769" y1="26.1378" x2="157.898" y2="39.6915" gradientUnits="userSpaceOnUse">
<stop stop-color="#E72377"/>
<stop offset="1" stop-color="#EB5E1B"/>
</linearGradient>
</defs>
</svg>
