<svg width="17" height="17" viewBox="0 0 17 17" fill="none" xmlns="http://www.w3.org/2000/svg">
<g clip-path="url(#clip0_332_93)">
<g clip-path="url(#clip1_332_93)">
<path d="M15.839 8.26856C15.839 7.64547 15.7895 7.19077 15.6824 6.71924H8.71777V9.53159H12.8058C12.7235 10.2305 12.2784 11.283 11.2893 11.9903L11.2754 12.0845L13.4775 13.8273L13.6301 13.8428C15.0312 12.5208 15.839 10.5757 15.839 8.26856" fill="#4285F4"/>
<path d="M8.71801 15.6786C10.7208 15.6786 12.4022 15.0049 13.6303 13.843L11.2895 11.9904C10.6631 12.4367 9.82243 12.7483 8.71801 12.7483C6.75639 12.7483 5.09149 11.4263 4.498 9.59912L4.41101 9.60667L2.12125 11.417L2.09131 11.5021C3.31113 13.9776 5.81675 15.6786 8.71801 15.6786Z" fill="#34A853"/>
<path d="M4.49772 9.59915C4.34112 9.12761 4.2505 8.62236 4.2505 8.10032C4.2505 7.57823 4.34112 7.07303 4.48948 6.6015L4.48534 6.50108L2.16689 4.66162L2.09103 4.69848C1.58828 5.72577 1.2998 6.87938 1.2998 8.10032C1.2998 9.32127 1.58828 10.4748 2.09103 11.5021L4.49772 9.59915" fill="#FBBC05"/>
<path d="M8.71801 3.45222C10.1109 3.45222 11.0505 4.0669 11.5863 4.58058L13.6797 2.49233C12.394 1.27138 10.7208 0.521973 8.71801 0.521973C5.81675 0.521973 3.31113 2.22286 2.09131 4.69842L4.48976 6.60144C5.09149 4.77423 6.75639 3.45222 8.71801 3.45222" fill="#EB4335"/>
</g>
</g>
<defs>
<clipPath id="clip0_332_93">
<rect width="16" height="16" fill="white" transform="translate(0.5 0.5)"/>
</clipPath>
<clipPath id="clip1_332_93">
<rect x="1.2998" y="0.5" width="14.5391" height="15.2" rx="7.26957" fill="white"/>
</clipPath>
</defs>
</svg>
