<svg width="20" height="20" viewBox="0 0 20 20" fill="none" xmlns="http://www.w3.org/2000/svg">
<path d="M15.0594 0H4.94094C3.63095 0.00140623 2.37502 0.522419 1.44872 1.44872C0.522419 2.37502 0.00140623 3.63095 0 4.94094V15.0591C0.00140623 16.369 0.522419 17.625 1.44872 18.5513C2.37502 19.4776 3.63095 19.9986 4.94094 20H15.0594C16.3693 19.9986 17.6252 19.4776 18.5515 18.5513C19.4777 17.625 19.9987 16.369 20 15.0591V4.94094C19.9987 3.63098 19.4777 2.37505 18.5515 1.44874C17.6252 0.522429 16.3693 0.00140638 15.0594 0ZM18.1016 15.0591C18.1007 15.8657 17.7799 16.639 17.2096 17.2094C16.6393 17.7799 15.866 18.1008 15.0594 18.1019H4.94094C4.13427 18.1009 3.36092 17.78 2.79055 17.2095C2.22018 16.6391 1.89935 15.8657 1.89844 15.0591V4.94094C1.89935 4.13427 2.22018 3.36089 2.79055 2.79046C3.36092 2.22003 4.13427 1.89912 4.94094 1.89812H15.0594C15.866 1.8992 16.6393 2.22015 17.2096 2.79057C17.7799 3.36099 18.1007 4.13432 18.1016 4.94094V15.0591Z" fill="black"/>
<path d="M15.0594 0H4.94094C3.63095 0.00140623 2.37502 0.522419 1.44872 1.44872C0.522419 2.37502 0.00140623 3.63095 0 4.94094V15.0591C0.00140623 16.369 0.522419 17.625 1.44872 18.5513C2.37502 19.4776 3.63095 19.9986 4.94094 20H15.0594C16.3693 19.9986 17.6252 19.4776 18.5515 18.5513C19.4777 17.625 19.9987 16.369 20 15.0591V4.94094C19.9987 3.63098 19.4777 2.37505 18.5515 1.44874C17.6252 0.522429 16.3693 0.00140638 15.0594 0ZM18.1016 15.0591C18.1007 15.8657 17.7799 16.639 17.2096 17.2094C16.6393 17.7799 15.866 18.1008 15.0594 18.1019H4.94094C4.13427 18.1009 3.36092 17.78 2.79055 17.2095C2.22018 16.6391 1.89935 15.8657 1.89844 15.0591V4.94094C1.89935 4.13427 2.22018 3.36089 2.79055 2.79046C3.36092 2.22003 4.13427 1.89912 4.94094 1.89812H15.0594C15.866 1.8992 16.6393 2.22015 17.2096 2.79057C17.7799 3.36099 18.1007 4.13432 18.1016 4.94094V15.0591Z" fill="white"/>
<path d="M9.99998 5.2373C9.05806 5.23737 8.13731 5.51673 7.35416 6.04008C6.57102 6.56343 5.96064 7.30725 5.60023 8.17749C5.23981 9.04773 5.14555 10.0053 5.32934 10.9291C5.51314 11.8529 5.96675 12.7015 6.63281 13.3675C7.29887 14.0335 8.14747 14.4871 9.07129 14.6708C9.99512 14.8546 10.9527 14.7602 11.8229 14.3998C12.6931 14.0393 13.4369 13.4289 13.9602 12.6457C14.4835 11.8625 14.7628 10.9417 14.7628 9.99981C14.7614 8.73709 14.2591 7.5265 13.3662 6.63365C12.4733 5.74081 11.2627 5.23863 9.99998 5.2373ZM9.99998 12.8642C9.43348 12.8641 8.87971 12.6961 8.40871 12.3813C7.9377 12.0665 7.57062 11.6191 7.35387 11.0957C7.13712 10.5723 7.08044 9.99642 7.191 9.4408C7.30155 8.88519 7.57438 8.37483 7.97499 7.97428C8.37559 7.57372 8.88597 7.30094 9.4416 7.19045C9.99722 7.07995 10.5731 7.13669 11.0965 7.3535C11.6199 7.5703 12.0672 7.93744 12.382 8.40848C12.6967 8.87951 12.8647 9.4333 12.8647 9.99981C12.8639 10.7593 12.5619 11.4875 12.0248 12.0245C11.4877 12.5615 10.7595 12.8635 9.99998 12.8642Z" fill="black"/>
<path d="M9.99998 5.2373C9.05806 5.23737 8.13731 5.51673 7.35416 6.04008C6.57102 6.56343 5.96064 7.30725 5.60023 8.17749C5.23981 9.04773 5.14555 10.0053 5.32934 10.9291C5.51314 11.8529 5.96675 12.7015 6.63281 13.3675C7.29887 14.0335 8.14747 14.4871 9.07129 14.6708C9.99512 14.8546 10.9527 14.7602 11.8229 14.3998C12.6931 14.0393 13.4369 13.4289 13.9602 12.6457C14.4835 11.8625 14.7628 10.9417 14.7628 9.99981C14.7614 8.73709 14.2591 7.5265 13.3662 6.63365C12.4733 5.74081 11.2627 5.23863 9.99998 5.2373ZM9.99998 12.8642C9.43348 12.8641 8.87971 12.6961 8.40871 12.3813C7.9377 12.0665 7.57062 11.6191 7.35387 11.0957C7.13712 10.5723 7.08044 9.99642 7.191 9.4408C7.30155 8.88519 7.57438 8.37483 7.97499 7.97428C8.37559 7.57372 8.88597 7.30094 9.4416 7.19045C9.99722 7.07995 10.5731 7.13669 11.0965 7.3535C11.6199 7.5703 12.0672 7.93744 12.382 8.40848C12.6967 8.87951 12.8647 9.4333 12.8647 9.99981C12.8639 10.7593 12.5619 11.4875 12.0248 12.0245C11.4877 12.5615 10.7595 12.8635 9.99998 12.8642Z" fill="white"/>
<path d="M14.9576 3.77148C14.7062 3.77142 14.4603 3.84593 14.2512 3.98558C14.0421 4.12523 13.8792 4.32375 13.7829 4.55603C13.6866 4.78832 13.6614 5.04393 13.7104 5.29055C13.7594 5.53717 13.8805 5.76371 14.0583 5.94153C14.236 6.11935 14.4626 6.24046 14.7092 6.28954C14.9558 6.33861 15.2114 6.31345 15.4437 6.21725C15.676 6.12104 15.8746 5.9581 16.0143 5.74904C16.154 5.53997 16.2285 5.29418 16.2285 5.04273C16.2285 4.70563 16.0946 4.38233 15.8563 4.14394C15.618 3.90554 15.2947 3.77157 14.9576 3.77148Z" fill="black"/>
<path d="M14.9576 3.77148C14.7062 3.77142 14.4603 3.84593 14.2512 3.98558C14.0421 4.12523 13.8792 4.32375 13.7829 4.55603C13.6866 4.78832 13.6614 5.04393 13.7104 5.29055C13.7594 5.53717 13.8805 5.76371 14.0583 5.94153C14.236 6.11935 14.4626 6.24046 14.7092 6.28954C14.9558 6.33861 15.2114 6.31345 15.4437 6.21725C15.676 6.12104 15.8746 5.9581 16.0143 5.74904C16.154 5.53997 16.2285 5.29418 16.2285 5.04273C16.2285 4.70563 16.0946 4.38233 15.8563 4.14394C15.618 3.90554 15.2947 3.77157 14.9576 3.77148Z" fill="white"/>
</svg>
