<svg width="32" height="20" viewBox="0 0 32 20" fill="none" xmlns="http://www.w3.org/2000/svg">
<path d="M31.3017 5.00724C31.1143 4.82931 30.8911 4.69722 30.6483 4.62063C30.4055 4.54403 30.1494 4.52487 29.8985 4.56456L27.8238 4.93423L26.0023 5.25953C23.1001 4.92958 21.8088 3.57471 20.7381 2.39948C19.6026 1.16664 18.5298 0 16.0013 0C13.4727 0 12.3934 1.17415 11.2469 2.41773C10.1225 3.64807 8.88592 4.93996 6.03875 5.26705L2.1033 4.56456C0.96787 4.34662 -0.0770667 5.54654 0.00447754 6.68991L0.148642 9.9633C0.26769 13.9284 4.19695 14.6796 7.20996 14.9963C11.2627 21.6669 20.7319 21.6665 24.7898 15.0035C27.8142 14.6975 31.7376 13.9431 31.8546 9.9633L31.9987 6.68991C32.0094 6.37328 31.9524 6.05812 31.8319 5.76715C31.7113 5.47618 31.5303 5.21664 31.3017 5.00724ZM31.024 9.92322C30.8784 13.2725 27.778 13.7041 25.3252 14.0709C25.8647 12.9175 26.2145 11.6782 26.3598 10.4045C25.1607 10.3633 23.9835 10.0593 22.9052 9.51244C21.8268 8.96558 20.8716 8.18816 20.1019 7.231C19.0212 6.05685 18.1658 5.12784 16.0009 5.12784C13.836 5.12784 12.9838 6.05828 11.9041 7.231C11.134 8.18899 10.1779 8.96692 9.09858 9.51383C8.01925 10.0607 6.84099 10.3643 5.64101 10.4045C5.78736 11.6748 6.13621 12.9109 6.67322 14.0619C4.26818 13.7495 1.04356 13.1157 0.977848 9.92322L0.830242 6.64947C0.791707 6.0411 1.33602 5.3014 1.96257 5.41699L5.57529 6.06115C5.57873 6.2798 5.56532 9.45656 5.58562 9.56499L6.82426 9.39322C9.22621 8.89937 10.2846 7.75098 11.3044 6.63516C12.4264 5.41842 13.4847 4.26503 16.0026 4.26503C18.5205 4.26503 19.5827 5.41735 20.7057 6.63516C21.7266 7.75098 22.786 8.89937 25.1903 9.39322L26.4203 9.56356C26.4372 9.46121 26.4269 6.27121 26.4293 6.06115L27.8255 5.81064L30.041 5.41699C30.1695 5.39716 30.3007 5.40827 30.4245 5.44947C30.5483 5.49066 30.6613 5.56084 30.7549 5.65461C30.8899 5.77895 30.9972 5.93234 31.0694 6.10413C31.1417 6.27592 31.1771 6.46201 31.1733 6.64947L31.024 9.92322Z" fill="white"/>
</svg>
