<svg width="28" height="28" viewBox="0 0 28 28" fill="none" xmlns="http://www.w3.org/2000/svg">
<path d="M14 0C6.27789 0 0 6.27789 0 14C0 21.7221 6.27789 28 14 28C21.7221 28 28 21.7221 28 14C28 6.27789 21.7221 0 14 0ZM23.0484 21.4863L19.5705 17.9789C19.4821 18.0968 19.3937 18.2147 19.3053 18.3326C18.8632 18.8337 18.1558 19.0989 17.5074 19.0695L21.4863 23.0484C19.3642 24.7874 16.7116 25.76 14 25.76C7.51579 25.76 2.24 20.4842 2.24 14C2.24 11.2884 3.21263 8.63579 4.95158 6.51368L8.28211 9.84421C8.69474 9.57895 9.16632 9.49053 9.66737 9.52C10.0505 9.54947 10.4042 9.69684 10.7284 9.93263C10.8168 9.75579 10.9053 9.57895 11.0232 9.43158L6.51368 4.95158C8.63579 3.18316 11.2884 2.24 14 2.24C20.4842 2.24 25.76 7.51579 25.76 14C25.76 16.7116 24.8168 19.3642 23.0484 21.4863Z" fill="white"/>
<path d="M17.3901 5.1875C16.2995 5.1875 15.4448 6.24855 15.4448 7.54539C15.4448 8.66539 16.0932 9.57908 16.948 9.84434C16.8595 10.6696 16.889 11.4654 17.2722 12.6738C17.6259 13.7938 17.508 14.678 17.3606 15.5622L15.9164 14.2654C15.5332 13.9117 15.0616 13.7349 14.5311 13.7349H12.9395C12.3501 13.7349 11.7606 13.4696 11.4069 12.998L9.99218 11.2591C9.72691 10.9349 9.25533 10.8759 8.90165 11.1412C8.57744 11.4064 8.51849 11.878 8.78375 12.2317L10.1985 13.9707C10.5816 14.4128 11.0532 14.7664 11.5543 15.0022V21.6633C11.5543 22.0759 11.908 22.4296 12.3206 22.4296C12.7332 22.4296 13.0869 22.0759 13.0869 21.6633V18.6275C13.0869 18.5096 13.1753 18.4212 13.2932 18.4212H14.0006C14.1185 18.4212 14.2069 18.5096 14.2069 18.6275V21.6633C14.2069 22.0759 14.5606 22.4296 14.9732 22.4296C15.3859 22.4296 15.7395 22.0759 15.7395 21.6633V16.1812L17.1248 17.4191C17.2722 17.5664 17.449 17.6254 17.6259 17.6254C17.8322 17.6254 18.0385 17.537 18.1859 17.3601C18.4806 17.0359 18.4511 16.5643 18.1269 16.2696L18.009 16.1517C18.1859 15.297 18.4511 13.9412 17.9795 12.438C17.5964 11.2591 17.6259 10.5812 17.7143 9.87382C18.628 9.69697 19.3353 8.72434 19.3353 7.54539C19.3353 6.24855 18.4806 5.1875 17.3901 5.1875Z" fill="white"/>
<path d="M13.6737 13.2337C14.6992 13.2337 15.5306 12.4024 15.5306 11.3769C15.5306 10.3514 14.6992 9.52002 13.6737 9.52002C12.6482 9.52002 11.8169 10.3514 11.8169 11.3769C11.8169 12.4024 12.6482 13.2337 13.6737 13.2337Z" fill="white"/>
</svg>
