<svg width="26" height="26" viewBox="0 0 26 26" fill="none" xmlns="http://www.w3.org/2000/svg">
<path fill-rule="evenodd" clip-rule="evenodd" d="M18.9445 20.7773C16.9491 22.3735 14.418 23.328 11.664 23.328C5.22214 23.328 0 18.1059 0 11.664C0 5.22214 5.22214 0 11.664 0C18.1059 0 23.328 5.22214 23.328 11.664C23.328 14.418 22.3735 16.9491 20.7773 18.9445L25.5404 23.7076C26.0465 24.2137 26.0465 25.0343 25.5404 25.5404C25.0343 26.0465 24.2137 26.0465 23.7076 25.5404L18.9445 20.7773ZM20.736 11.664C20.736 16.6743 16.6743 20.736 11.664 20.736C6.65366 20.736 2.592 16.6743 2.592 11.664C2.592 6.65366 6.65366 2.592 11.664 2.592C16.6743 2.592 20.736 6.65366 20.736 11.664Z" fill="black" fill-opacity="0.9"/>
</svg>
