<svg width="353" height="233" viewBox="0 0 353 233" fill="none" xmlns="http://www.w3.org/2000/svg">
<path d="M36 186.219L70 203.219" stroke="#66CCFF" stroke-width="3" stroke-linecap="round"/>
<path d="M320.001 57.2923C325.494 59.559 327.907 57.359 327.24 50.6923C325.907 45.359 328.24 43.6923 334.24 45.6923C340.24 47.0256 342.24 45.0256 340.24 39.6923C339.574 33.0256 342.24 30.6923 348.24 32.6923" stroke="white" stroke-width="4" stroke-linecap="round"/>
<path d="M254.148 118.355C249.06 114.466 246.004 115.764 244.981 122.25C244.602 128.563 241.791 129.661 236.546 125.545C231.475 122.073 228.428 123.579 227.405 130.065C226.209 135.907 223.076 137.091 218.004 133.619" stroke="#E6F2FF" stroke-width="3" stroke-linecap="round"/>
<path d="M229.51 76.4291C226.315 72.6214 221.324 71.5492 218.362 74.0342C215.401 76.5192 215.59 81.6204 218.785 85.4281C221.98 89.2358 226.971 90.308 229.933 87.823C232.894 85.338 232.705 80.2368 229.51 76.4291Z" fill="#66CCFF"/>
<path d="M301 87.8469L312.919 89.8295L305.072 99.1792L301 87.8469Z" fill="#66CCFF"/>
<path d="M102 4.47168L108.162 5.49662L104.105 10.33L102 4.47168Z" fill="#66CCFF"/>
<path d="M301.602 46.3039C297.629 42.2599 295.367 43.0726 294.816 48.7418C295.725 54.7099 294.201 55.4633 290.245 51.0018C285.817 47.3569 283.65 48.2828 283.742 53.7795C284.007 59.9201 282.162 60.7598 278.205 56.2983" fill="#E72377"/>
<path d="M301.602 46.3039C297.629 42.2599 295.367 43.0726 294.816 48.7418C295.725 54.7099 294.201 55.4633 290.245 51.0018C285.817 47.3569 283.65 48.2828 283.742 53.7795C284.007 59.9201 282.162 60.7598 278.205 56.2983" stroke="#E72377" stroke-width="4" stroke-linecap="round"/>
<path d="M33.753 25.6252L30.6114 25.9868L28.4373 23.6905L27.8925 27.2546L23.8447 28.0388L26.9251 29.9125L27.2867 33.054L29.583 30.8799L33.1471 31.4246L31.8793 28.7057L33.753 25.6252Z" fill="white"/>
<path d="M332.812 166.42L337.761 157.847L350.716 163.693L346.991 172.974L332.812 166.42Z" fill="#A8C0F0"/>
<path d="M346.783 118.359C342.225 114.337 339.434 115.569 338.411 122.054C337.86 127.724 335.37 128.736 330.943 125.091C326.515 121.446 323.704 122.544 322.508 128.386C322.773 134.527 320.284 135.539 315.04 131.423" stroke="#A8C0F0" stroke-width="4" stroke-linecap="round"/>
<path d="M25.854 119.105C28.4293 121.191 31.9257 121.141 33.6635 118.995C35.4013 116.849 34.7225 113.419 32.1473 111.334C29.572 109.248 26.0756 109.298 24.3378 111.444C22.6 113.59 23.2788 117.02 25.854 119.105Z" fill="#E6F2FF"/>
<path d="M327.663 76.5474C330.238 78.6328 333.734 78.5836 335.472 76.4376C337.21 74.2915 336.531 70.8613 333.956 68.7759C331.381 66.6905 327.884 66.7397 326.146 68.8857C324.409 71.0318 325.087 74.462 327.663 76.5474Z" fill="#E6F2FF"/>
<path d="M132.87 38C133.335 35.9436 132.551 34.9155 130.517 34.9155C128.483 35.1277 127.67 34.1725 128.077 32.0498C128.483 30.1393 127.67 29.1841 125.636 29.1841C123.399 29.1841 122.586 28.1227 123.196 26" stroke="#E6F2FF" stroke-width="3" stroke-linecap="round"/>
<path d="M27.8864 52.3032C26.8114 48.7685 24.6889 47.9163 21.5188 49.7465C18.5345 51.8984 16.4307 51.1828 15.2073 47.5997C14.1697 44.3383 12.0658 43.6227 8.89581 45.4529C5.40877 47.4661 3.21206 46.5897 2.30568 42.8235" stroke="#E6F2FF" stroke-width="3" stroke-linecap="round"/>
<path d="M4 126.219L15 127.219L13 142.219L2 140.219L4 126.219Z" fill="#E72377"/>
<path d="M193.564 38.131L191.035 34.4425L192.1 30.4593L188.021 31.6287L184.133 28.33L183.943 32.7981L180.255 35.327L184.238 36.3916L184.922 41.3445L188.221 37.4562L193.564 38.131Z" fill="#A8C0F0"/>
<path d="M56.4552 50.3989L60.794 47.7203L64.9847 49.2817L63.7194 44.9923L67.3762 41.5823L61.7228 41.3849L59.7261 37.7774L58.1647 41.9681L53.1933 42.5021L57.3347 45.4768L56.4552 50.3989Z" fill="white"/>
<path d="M156.219 2C153.567 7.45171 155.242 9.84423 161.242 9.17757C167.242 9.17757 168.908 12.1776 166.242 18.1776C163.575 23.5109 165.242 25.8442 171.242 25.1776C177.908 25.1776 179.908 28.1776 177.242 34.1776" stroke="white" stroke-width="3" stroke-linecap="round"/>
<path d="M275.763 20.5502L273.234 16.8617L274.299 12.8784L270.22 14.0479L266.332 10.7492L266.142 15.2173L262.454 17.7462L266.437 18.8108L267.122 23.7637L270.42 19.8754L275.763 20.5502Z" fill="#A8C0F0"/>
<path d="M2 94.3C6.75527 98.3667 10.1329 97.4 12.1329 91.4C12.7996 85.4 15.4662 84.7333 20.1329 89.4C24.7996 93.4 28.1329 92.4 30.1329 86.4C31.4662 80.4 34.4662 79.4 39.1329 83.4" stroke="#66CCFF" stroke-width="4" stroke-linecap="round"/>
<path d="M225.793 30L240.793 20L247.793 31L232.793 41L225.793 30Z" fill="#E6F2FF"/>
<path d="M100.851 31.4174L98.2436 28.9268L99.923 25.1612L95.6364 26.4363L93.0293 23.9457L93.3195 28.0586L89.8442 30.4921L93.6097 32.1715L95.0584 35.4732L97.7226 31.8813L100.851 31.4174Z" fill="#66CCFF"/>
<path d="M313.793 51L314.793 69L299.793 66L313.793 51Z" fill="#E72377"/>
<path d="M15 56.6821C17.3525 61.7122 19.5288 61.5606 21.5288 56.2273C24.1954 50.894 26.5288 50.894 28.5288 56.2273C30.5288 61.5606 32.8621 61.5606 35.5288 56.2273C37.5288 50.894 39.5288 50.894 41.5288 56.2273" fill="#E72377"/>
<path d="M15 56.6821C17.3525 61.7122 19.5288 61.5606 21.5288 56.2273C24.1954 50.894 26.5288 50.894 28.5288 56.2273C30.5288 61.5606 32.8621 61.5606 35.5288 56.2273C37.5288 50.894 39.5288 50.894 41.5288 56.2273" stroke="#E72377" stroke-width="3" stroke-linecap="round"/>
<g filter="url(#filter0_b_410_375)">
<rect x="292" y="54" width="148" height="238" rx="20" transform="rotate(90 292 54)" fill="url(#paint0_radial_410_375)"/>
<rect x="293.75" y="52.25" width="151.5" height="241.5" rx="21.75" transform="rotate(90 293.75 52.25)" stroke="url(#paint1_radial_410_375)" stroke-width="3.5"/>
<rect x="293.75" y="52.25" width="151.5" height="241.5" rx="21.75" transform="rotate(90 293.75 52.25)" stroke="url(#paint2_linear_410_375)" stroke-width="3.5"/>
</g>
<path d="M69 75C69 72.2386 71.2386 70 74 70H92.8251C95.5866 70 97.8251 72.2386 97.8251 75V90.222C97.8251 92.9834 95.5866 95.222 92.8251 95.222H74C71.2386 95.222 69 92.9834 69 90.222V75Z" stroke="#E5B332" stroke-opacity="0.5" stroke-width="3"/>
<path d="M79.9906 70L79.9906 95.222M69.3613 74.8642H80.1708M69.3613 82.0705H80.1708M69.3613 89.2768H80.1708M87.0167 82.0705H97.8262M87.0167 89.2768H97.8262M87.3771 95.222C87.3771 95.222 87.377 94.3132 87.3771 84.4987C87.3772 74.6841 87.3772 74.6841 97.8262 74.6841" stroke="#E6B332" stroke-opacity="0.3" stroke-width="3"/>
<circle cx="250.912" cy="82.6451" r="13.5118" fill="#181C25"/>
<circle cx="265.686" cy="82.6451" r="13.5118" fill="#A8C0F0"/>
<circle cx="91" cy="183" r="50" fill="#181C25"/>
<path d="M91 233C100.889 233 110.556 230.068 118.778 224.573C127.001 219.079 133.41 211.27 137.194 202.134C140.978 192.998 141.968 182.945 140.039 173.245C138.11 163.546 133.348 154.637 126.355 147.645C119.363 140.652 110.454 135.89 100.755 133.961C91.0555 132.031 81.0021 133.022 71.8658 136.806C62.7295 140.59 54.9206 146.999 49.4265 155.222C43.9324 163.444 41 173.111 41 183C41 196.261 46.2678 208.979 55.6447 218.355C65.0215 227.732 77.7392 233 91 233ZM65.0454 184.318C65.8971 183.472 67.0492 182.996 68.25 182.996C69.4508 182.996 70.6029 183.472 71.4545 184.318L81.9091 194.773L108.227 168.455C109.097 167.71 110.215 167.321 111.359 167.365C112.503 167.409 113.588 167.883 114.398 168.693C115.208 169.502 115.682 170.588 115.726 171.732C115.77 172.876 115.381 173.994 114.636 174.864L85.0909 204.409C84.2393 205.256 83.0872 205.731 81.8864 205.731C80.6855 205.731 79.5335 205.256 78.6818 204.409L65.0454 190.773C64.6194 190.35 64.2813 189.847 64.0505 189.294C63.8197 188.74 63.7009 188.146 63.7009 187.545C63.7009 186.945 63.8197 186.351 64.0505 185.797C64.2813 185.243 64.6194 184.741 65.0454 184.318Z" fill="url(#paint3_linear_410_375)"/>
<defs>
<filter id="filter0_b_410_375" x="8.5" y="8.5" width="329" height="239" filterUnits="userSpaceOnUse" color-interpolation-filters="sRGB">
<feFlood flood-opacity="0" result="BackgroundImageFix"/>
<feGaussianBlur in="BackgroundImageFix" stdDeviation="21"/>
<feComposite in2="SourceAlpha" operator="in" result="effect1_backgroundBlur_410_375"/>
<feBlend mode="normal" in="SourceGraphic" in2="effect1_backgroundBlur_410_375" result="shape"/>
</filter>
<radialGradient id="paint0_radial_410_375" cx="0" cy="0" r="1" gradientUnits="userSpaceOnUse" gradientTransform="translate(292 54) rotate(58.1246) scale(280.264 174.657)">
<stop stop-color="white" stop-opacity="0.4"/>
<stop offset="1" stop-color="white" stop-opacity="0"/>
</radialGradient>
<radialGradient id="paint1_radial_410_375" cx="0" cy="0" r="1" gradientUnits="userSpaceOnUse" gradientTransform="translate(366 173) rotate(58.1246) scale(140.132 3.53897)">
<stop stop-color="#EA4D36"/>
<stop offset="1" stop-color="#E9355D" stop-opacity="0.5"/>
</radialGradient>
<linearGradient id="paint2_linear_410_375" x1="292" y1="54" x2="440.82" y2="291.486" gradientUnits="userSpaceOnUse">
<stop stop-color="white"/>
<stop offset="1" stop-color="white" stop-opacity="0"/>
</linearGradient>
<linearGradient id="paint3_linear_410_375" x1="36.2532" y1="115.955" x2="153.365" y2="127.68" gradientUnits="userSpaceOnUse">
<stop stop-color="#E72377"/>
<stop offset="1" stop-color="#EB5E1B"/>
</linearGradient>
</defs>
</svg>
