<svg width="20" height="17" viewBox="0 0 20 17" fill="none" xmlns="http://www.w3.org/2000/svg">
<path d="M10.4796 6.57698V16.5133C10.4796 16.7769 10.2596 17 9.99964 17C9.73965 17 9.51966 16.7769 9.51966 16.5133V6.57698L7.61973 8.6048C7.43973 8.80759 7.11975 8.80758 6.91975 8.62508C6.71976 8.44258 6.71976 8.11812 6.89975 7.91534L9.63966 5.01555C9.73965 4.91416 9.85965 4.85333 9.99964 4.85333C10.1396 4.85333 10.2596 4.91416 10.3596 5.01555L13.0995 7.91534C13.2795 8.11812 13.2795 8.4223 13.0795 8.62508C12.9795 8.72647 12.8595 8.76703 12.7395 8.76703C12.6195 8.76703 12.4796 8.70619 12.3796 8.6048L10.4796 6.57698ZM19.9993 8.82786C19.9393 6.45531 18.2793 4.0422 15.2395 4.0422C15.1595 4.0422 15.0795 4.0422 14.9995 4.0422C14.7995 3.08912 14.3795 2.23743 13.7195 1.54797C13.0195 0.817953 12.0996 0.310997 11.0796 0.108214C8.99968 -0.317629 6.97975 0.534057 5.83979 2.29827C4.65983 2.15632 3.51987 2.5416 2.61991 3.35273C1.69994 4.18414 1.21996 5.36028 1.27995 6.57698C0.459984 7.36783 0 8.46286 0 9.59844C0 11.9102 1.85993 13.7758 4.11985 13.7758H8.03971C8.2997 13.7758 8.5197 13.5527 8.5197 13.2891C8.5197 13.0255 8.2997 12.8024 8.03971 12.8024H4.11985C2.37991 12.8024 0.979965 11.3626 0.979965 9.61872C0.979965 8.68592 1.39995 7.79367 2.11992 7.16505C2.23992 7.06366 2.29992 6.90143 2.29992 6.7392C2.19992 5.72529 2.57991 4.77221 3.31988 4.08275C4.05985 3.41357 5.03982 3.12967 6.01978 3.33246C6.21978 3.37301 6.43977 3.27162 6.53977 3.08912C7.41973 1.50741 9.11967 0.716562 10.8996 1.10185C12.2996 1.38574 13.8795 2.48077 14.1195 4.65054C14.1395 4.79249 14.1995 4.91416 14.2995 4.99527C14.3995 5.07639 14.5395 5.11694 14.6795 5.09666C14.8595 5.07639 15.0595 5.05611 15.2595 5.05611C17.7994 5.05611 18.9993 7.04338 19.0393 8.86842C19.0793 10.734 17.9194 12.6807 15.2395 12.8024H11.9596C11.6996 12.8024 11.4796 13.0255 11.4796 13.2891C11.4796 13.5527 11.6996 13.7758 11.9596 13.7758H15.2395H15.2595C16.7594 13.6946 18.0194 13.1269 18.8793 12.1332C19.6193 11.2613 20.0193 10.0851 19.9993 8.82786Z" fill="white"/>
</svg>
