<svg width="23" height="24" viewBox="0 0 23 24" fill="none" xmlns="http://www.w3.org/2000/svg">
<path d="M11.5 23.8118C13.7745 23.8118 15.9979 23.1135 17.8891 21.8053C19.7802 20.497 21.2542 18.6376 22.1246 16.4621C22.995 14.2866 23.2228 11.8927 22.779 9.58316C22.3353 7.27365 21.24 5.15222 19.6317 3.48716C18.0234 1.82209 15.9743 0.688165 13.7435 0.228774C11.5128 -0.230618 9.20049 0.00515867 7.09914 0.906287C4.99779 1.80741 3.20174 3.33342 1.9381 5.29133C0.674463 7.24925 0 9.55112 0 11.9059C0 15.0635 1.2116 18.0918 3.36827 20.3246C5.52494 22.5574 8.45001 23.8118 11.5 23.8118ZM5.53045 12.2198C5.72633 12.0182 5.9913 11.905 6.2675 11.905C6.54369 11.905 6.80867 12.0182 7.00454 12.2198L9.40909 14.7092L15.4623 8.44236C15.6623 8.26504 15.9195 8.17238 16.1826 8.1829C16.4458 8.19343 16.6954 8.30635 16.8815 8.49911C17.0677 8.69187 17.1768 8.95027 17.187 9.22268C17.1971 9.49508 17.1076 9.76142 16.9364 9.96847L10.1409 17.0038C9.94503 17.2054 9.68006 17.3185 9.40386 17.3185C9.12767 17.3185 8.8627 17.2054 8.66682 17.0038L5.53045 13.7567C5.43247 13.6561 5.35469 13.5364 5.30161 13.4045C5.24854 13.2726 5.22121 13.1311 5.22121 12.9882C5.22121 12.8454 5.24854 12.7039 5.30161 12.572C5.35469 12.4401 5.43247 12.3204 5.53045 12.2198Z" fill="url(#paint0_linear_265_27898)"/>
<defs>
<linearGradient id="paint0_linear_265_27898" x1="-1.09177" y1="-4.05883" x2="25.8618" y2="-1.45227" gradientUnits="userSpaceOnUse">
<stop stop-color="#E72377"/>
<stop offset="1" stop-color="#EB5E1B"/>
</linearGradient>
</defs>
</svg>
