<svg width="32" height="28" viewBox="0 0 32 28" fill="none" xmlns="http://www.w3.org/2000/svg">
<path d="M16.768 11.1786V26.8586C16.768 27.2746 16.416 27.6266 16 27.6266C15.584 27.6266 15.232 27.2746 15.232 26.8586V11.1786L12.192 14.3786C11.904 14.6986 11.392 14.6986 11.072 14.4106C10.752 14.1226 10.752 13.6106 11.04 13.2906L15.424 8.71457C15.584 8.55457 15.776 8.45857 16 8.45857C16.224 8.45857 16.416 8.55457 16.576 8.71457L20.96 13.2906C21.248 13.6106 21.248 14.0906 20.928 14.4106C20.768 14.5706 20.576 14.6346 20.384 14.6346C20.192 14.6346 19.968 14.5386 19.808 14.3786L16.768 11.1786ZM32 14.7306C31.904 10.9866 29.248 7.17857 24.384 7.17857C24.256 7.17857 24.128 7.17857 24 7.17857C23.68 5.67457 23.008 4.33057 21.952 3.24257C20.832 2.09057 19.36 1.29057 17.728 0.970571C14.4 0.298571 11.168 1.64257 9.344 4.42657C7.456 4.20257 5.632 4.81057 4.192 6.09057C2.72 7.40257 1.952 9.25857 2.048 11.1786C0.736 12.4266 0 14.1546 0 15.9466C0 19.5946 2.976 22.5386 6.592 22.5386H12.864C13.28 22.5386 13.632 22.1866 13.632 21.7706C13.632 21.3546 13.28 21.0026 12.864 21.0026H6.592C3.808 21.0026 1.568 18.7306 1.568 15.9786C1.568 14.5066 2.24 13.0986 3.392 12.1066C3.584 11.9466 3.68 11.6906 3.68 11.4346C3.52 9.83457 4.128 8.33057 5.312 7.24257C6.496 6.18657 8.064 5.73857 9.632 6.05857C9.952 6.12257 10.304 5.96257 10.464 5.67457C11.872 3.17857 14.592 1.93057 17.44 2.53857C19.68 2.98657 22.208 4.71457 22.592 8.13857C22.624 8.36257 22.72 8.55457 22.88 8.68257C23.04 8.81057 23.264 8.87457 23.488 8.84257C23.776 8.81057 24.096 8.77857 24.416 8.77857C28.48 8.77857 30.4 11.9146 30.464 14.7946C30.528 17.7386 28.672 20.8106 24.384 21.0026H19.136C18.72 21.0026 18.368 21.3546 18.368 21.7706C18.368 22.1866 18.72 22.5386 19.136 22.5386H24.384H24.416C26.816 22.4106 28.832 21.5146 30.208 19.9466C31.392 18.5706 32.032 16.7146 32 14.7306Z" fill="black"/>
</svg>
