<svg width="20" height="19" viewBox="0 0 20 19" fill="none" xmlns="http://www.w3.org/2000/svg">
<path d="M0.0487804 0L7.77134 10.4519L0 18.9474H1.75L8.55183 11.5073L14.0488 18.9474H20L11.8445 7.90914L19.0762 0H17.3293L11.064 6.85068L6.00305 0H0.0487804ZM2.62195 1.30225H5.35671L17.4299 17.642H14.6951L2.62195 1.30225Z" fill="black"/>
<path d="M0.0487804 0L7.77134 10.4519L0 18.9474H1.75L8.55183 11.5073L14.0488 18.9474H20L11.8445 7.90914L19.0762 0H17.3293L11.064 6.85068L6.00305 0H0.0487804ZM2.62195 1.30225H5.35671L17.4299 17.642H14.6951L2.62195 1.30225Z" fill="white"/>
</svg>
